<svg id="Layer_1" data-name="Layer 1" xmlns="http://www.w3.org/2000/svg" xmlns:xlink="http://www.w3.org/1999/xlink" viewBox="0 0 380 321.43"><defs><style>.cls-1{fill:none;}.cls-2{fill:#565656;}.cls-3{clip-path:url(#clip-path);}.cls-4{fill:#d9e083;}.cls-5{fill:#f6abcc;}.cls-6{fill:#d0b7cc;}.cls-7{fill:#91d4cd;}.cls-8{fill:#ffe560;}</style><clipPath id="clip-path" transform="translate(-2.17 -1.44)"><rect class="cls-1" x="-207.83" y="-187.85" width="800" height="700"/></clipPath></defs><polygon class="cls-2" points="30.92 154.12 39.51 154.12 39.51 215.97 34.36 215.97 34.36 158.93 34.02 158.93 19.75 190.2 5.5 158.93 5.15 158.93 5.15 215.97 0 215.97 0 154.12 8.59 154.12 19.75 178.6 30.92 154.12"/><path class="cls-2" d="M107.64,217.4l-3.43-14.6H83.94L80.5,217.4H75.17l14.52-61.85h8.68L113,217.4ZM85.05,198h18l-8.85-37.63H93.9Z" transform="translate(-2.17 -1.44)"/><g class="cls-3"><path class="cls-2" d="M177.38,177.89c0,4,0,5.24-.68,8.24a7.71,7.71,0,0,1-1.72,3.35,14.1,14.1,0,0,1-8.68,3.7l11.08,24.22h-5.67l-11-24.05h-9.11V217.4h-5.15V155.55h15.46c7.56,0,11.85,1.64,13.57,4.56a10.31,10.31,0,0,1,1.64,4.89,45.14,45.14,0,0,1,.25,6ZM172.23,171a31.47,31.47,0,0,0-.34-6.19,4.65,4.65,0,0,0-.95-2.06c-1.46-1.46-3.69-2.41-9-2.41H151.61v28.18h10.31c5.33,0,7.56-.95,9-2.41.77-.77,1.2-3.26,1.29-4.72V171Z" transform="translate(-2.17 -1.44)"/><polygon class="cls-2" points="238.76 154.12 238.76 158.93 225.88 158.93 225.88 215.97 220.72 215.97 220.72 158.93 207.84 158.93 207.84 154.12 238.76 154.12"/><path class="cls-2" d="M300,217.4l-3.44-14.6H276.32l-3.44,14.6h-5.33l14.52-61.85h8.68l14.6,61.85ZM277.43,198h18l-8.84-37.63h-.35Z" transform="translate(-2.17 -1.44)"/><rect class="cls-2" x="327.84" y="154.12" width="5.15" height="15.03"/><path class="cls-2" d="M382.17,174.45H377V171a31.87,31.87,0,0,0-.34-6.27,4.94,4.94,0,0,0-.95-2.32c-1.46-1.55-3.69-2.58-9-2.58s-7.56,1-9,2.58c-.77.86-1.2,3.6-1.2,5-.09.77-.09,2-.09,3.61v2.57c0,3.1-.08,4.21,2.06,6.45a11.68,11.68,0,0,0,4.82,2.74l8.58,2.93c6,2.31,8.77,4.72,9.63,8a16.48,16.48,0,0,1,.68,5.67v2.58a43.69,43.69,0,0,1-.34,6.87,9.46,9.46,0,0,1-2.58,5.5c-2,2.4-6.1,3.61-12.54,3.61a26.58,26.58,0,0,1-9.79-1.64,9.3,9.3,0,0,1-4.38-4.38c-.78-1.37-1.2-4.72-1.2-6.35-.09-.78-.09-2-.09-3.61V198.5h5.15v3.44a25.36,25.36,0,0,0,.43,6.27,3.93,3.93,0,0,0,.86,2.23c1.46,1.64,3.7,2.67,9,2.67s7.56-1,9-2.67c.77-.86,1.2-3.52,1.29-5v-6.1a10.37,10.37,0,0,0-.86-5c-.77-1.89-2.66-3.09-6-4.21l-8.59-2.83c-6-2.24-8.76-4.81-9.62-8.16a15.57,15.57,0,0,1-.69-5.59V171a34.76,34.76,0,0,1,.43-6.88,8.85,8.85,0,0,1,2.49-5.49c2-2.41,6.1-3.61,12.54-3.61a26.86,26.86,0,0,1,9.79,1.55c2.15.86,3.7,3.09,4.47,4.46a21.74,21.74,0,0,1,1.2,6.36v7Z" transform="translate(-2.17 -1.44)"/><polygon class="cls-2" points="98.43 231.71 101.92 231.71 101.92 256.81 99.83 256.81 99.83 233.66 99.69 233.66 93.9 246.35 88.11 233.66 87.97 233.66 87.97 256.81 85.88 256.81 85.88 231.71 89.36 231.71 93.9 241.65 98.43 231.71"/><path class="cls-2" d="M130.88,258.25l-1.39-5.93h-8.23l-1.4,5.93H117.7l5.89-25.11h3.53L133,258.25Zm-9.17-7.88H129l-3.59-15.27h-.14Z" transform="translate(-2.17 -1.44)"/><path class="cls-2" d="M156.77,250.58h2.09V252a17.47,17.47,0,0,1-.14,2.79,3.8,3.8,0,0,1-1.05,2.24c-.8,1-2.47,1.46-5.09,1.46a10.79,10.79,0,0,1-4-.66,3.82,3.82,0,0,1-1.78-1.78,7.17,7.17,0,0,1-.49-2.58c0-.31,0-.8,0-1.47V239.42a14.42,14.42,0,0,1,.17-2.79,3.6,3.6,0,0,1,1-2.23c.8-1,2.48-1.47,5.09-1.47a10.91,10.91,0,0,1,4,.63,4.14,4.14,0,0,1,1.81,1.81,8.75,8.75,0,0,1,.49,2.58v2.86h-2.09v-1.39a12.82,12.82,0,0,0-.14-2.55,2,2,0,0,0-.39-.94c-.59-.63-1.5-1-3.66-1s-3.07.41-3.66,1a4.19,4.19,0,0,0-.49,2c0,.32,0,.81,0,1.47V252a10.59,10.59,0,0,0,.17,2.55,1.66,1.66,0,0,0,.35.91c.59.66,1.5,1.08,3.66,1.08s3.07-.42,3.66-1.08a4.44,4.44,0,0,0,.53-2v-2.82Z" transform="translate(-2.17 -1.44)"/><path class="cls-2" d="M185.13,258.25l-1.4-5.93H175.5l-1.39,5.93H172l5.89-25.11h3.52l5.93,25.11ZM176,250.37h7.32l-3.59-15.27h-.14Z" transform="translate(-2.17 -1.44)"/><path class="cls-2" d="M213.45,242.21a12,12,0,0,1-.28,3.35,3.16,3.16,0,0,1-.69,1.36,5.79,5.79,0,0,1-3.53,1.5l4.5,9.83h-2.3l-4.46-9.76H203v9.76H200.9V233.14h6.27c3.07,0,4.82.66,5.52,1.85a4.3,4.3,0,0,1,.66,2,18.49,18.49,0,0,1,.1,2.44Zm-2.09-2.79a12.54,12.54,0,0,0-.14-2.51,1.88,1.88,0,0,0-.38-.84c-.6-.59-1.5-1-3.67-1H203v11.43h4.18c2.17,0,3.07-.38,3.67-1a3.91,3.91,0,0,0,.52-1.92v-4.22Z" transform="translate(-2.17 -1.44)"/><path class="cls-2" d="M236.72,233.11a4.35,4.35,0,0,1,2.76,1.29,3.79,3.79,0,0,1,1,2.23,17.47,17.47,0,0,1,.14,2.79V252a17.47,17.47,0,0,1-.14,2.79,3.85,3.85,0,0,1-1,2.24c-.81,1-2.48,1.46-5.1,1.46a10.79,10.79,0,0,1-4-.66,3.82,3.82,0,0,1-1.78-1.78,7.17,7.17,0,0,1-.49-2.58c0-.31,0-.8,0-1.47V239.42a14.42,14.42,0,0,1,.17-2.79,3.3,3.3,0,0,1,.35-1.26,4.08,4.08,0,0,1,3.45-2.26,14.45,14.45,0,0,1,4.64,0m1.85,6.31a12.82,12.82,0,0,0-.14-2.55,2,2,0,0,0-.38-.94c-.6-.63-1.5-1-3.67-1s-3.06.41-3.66,1a4.19,4.19,0,0,0-.49,2c0,.32,0,.81,0,1.47V252a10.59,10.59,0,0,0,.17,2.55,1.66,1.66,0,0,0,.35.91c.6.66,1.5,1.08,3.66,1.08s3.07-.42,3.67-1.08a4.57,4.57,0,0,0,.52-2v-14Z" transform="translate(-2.17 -1.44)"/><polygon class="cls-2" points="264.65 231.71 266.74 231.71 266.74 256.81 263.08 256.81 255.72 233.66 255.58 233.66 255.58 256.81 253.49 256.81 253.49 231.71 257.15 231.71 264.51 254.86 264.65 254.86 264.65 231.71"/><path class="cls-2" d="M296.3,240.81h-2.09v-1.39a12.82,12.82,0,0,0-.14-2.55,2,2,0,0,0-.39-.94c-.59-.63-1.5-1-3.66-1s-3.07.41-3.66,1a4.19,4.19,0,0,0-.49,2c0,.32,0,.81,0,1.47v1.05c0,1.25,0,1.7.83,2.61a4.8,4.8,0,0,0,2,1.12l3.48,1.18c2.45.94,3.56,1.92,3.91,3.25a6.57,6.57,0,0,1,.28,2.3v1a17.47,17.47,0,0,1-.14,2.79,3.8,3.8,0,0,1-1.05,2.24c-.8,1-2.47,1.46-5.09,1.46a10.75,10.75,0,0,1-4-.66,3.77,3.77,0,0,1-1.78-1.78,7,7,0,0,1-.49-2.58,14.11,14.11,0,0,1,0-1.47v-1.39h2.1V252a10.59,10.59,0,0,0,.17,2.55,1.59,1.59,0,0,0,.35.9c.59.67,1.5,1.09,3.66,1.09s3.07-.42,3.66-1.09a4.36,4.36,0,0,0,.53-2v-2.47a4.26,4.26,0,0,0-.35-2c-.32-.76-1.08-1.25-2.44-1.71L287.93,246c-2.44-.9-3.56-1.95-3.91-3.31a6.27,6.27,0,0,1-.28-2.26v-1.05a13.63,13.63,0,0,1,.18-2.79,3.6,3.6,0,0,1,1-2.23c.8-1,2.48-1.47,5.09-1.47a11,11,0,0,1,4,.63,4.14,4.14,0,0,1,1.81,1.81,9.08,9.08,0,0,1,.49,2.58v2.86Z" transform="translate(-2.17 -1.44)"/><path class="cls-4" d="M181.21,49a20.54,20.54,0,1,1-20.54-20.54A20.54,20.54,0,0,1,181.21,49" transform="translate(-2.17 -1.44)"/><path class="cls-5" d="M149.7,97.58a20.53,20.53,0,1,1-20.53-20.53A20.54,20.54,0,0,1,149.7,97.58" transform="translate(-2.17 -1.44)"/><path class="cls-6" d="M212.71,97.58a20.54,20.54,0,1,1-20.54-20.53,20.54,20.54,0,0,1,20.54,20.53" transform="translate(-2.17 -1.44)"/><path class="cls-7" d="M244.21,49a20.54,20.54,0,1,1-20.53-20.54A20.53,20.53,0,0,1,244.21,49" transform="translate(-2.17 -1.44)"/><path class="cls-8" d="M275.71,97.58a20.53,20.53,0,1,1-20.53-20.53,20.54,20.54,0,0,1,20.53,20.53" transform="translate(-2.17 -1.44)"/><path class="cls-7" d="M192.17,322.87a159.9,159.9,0,0,1-126.06-61.1A3,3,0,1,1,70.82,258a154.61,154.61,0,0,0,242.71,0,3,3,0,1,1,4.71,3.73,159.91,159.91,0,0,1-126.07,61.1" transform="translate(-2.17 -1.44)"/><path class="cls-7" d="M347.93,140.39a3,3,0,0,1-3-2.53C333,62.29,268.78,7.45,192.17,7.45S51.31,62.29,39.39,137.86a3,3,0,0,1-5.94-.94,160.72,160.72,0,0,1,317.45,0,3,3,0,0,1-2.5,3.44l-.47,0" transform="translate(-2.17 -1.44)"/></g></svg>